<svg width="118" height="118" viewBox="0 0 118 118" fill="none" xmlns="http://www.w3.org/2000/svg">
<circle opacity="0.1" cx="59" cy="59" r="59" fill="#B3C6FF"/>
<circle opacity="0.1" cx="59" cy="59" r="46" fill="#B3C6FF"/>
<path d="M80 57.08V59.012C79.9974 63.5405 78.531 67.9468 75.8196 71.5738C73.1081 75.2009 69.2969 77.8542 64.9542 79.1382C60.6116 80.4222 55.9702 80.268 51.7224 78.6986C47.4745 77.1293 43.8478 74.2288 41.383 70.4298C38.9183 66.6309 37.7476 62.1369 38.0455 57.6183C38.3435 53.0996 40.0941 48.7983 43.0364 45.3559C45.9786 41.9134 49.9548 39.5143 54.372 38.5163C58.7891 37.5183 63.4106 37.9749 67.547 39.818" stroke="#B3C6FF" stroke-width="4.2" stroke-linecap="round" stroke-linejoin="round"/>
<path d="M80.0002 42.212L59.0002 63.233L52.7002 56.933" stroke="#B3C6FF" stroke-width="4.2" stroke-linecap="round" stroke-linejoin="round"/>
</svg>
