<svg width="24" height="31" viewBox="0 0 24 31" fill="none" xmlns="http://www.w3.org/2000/svg">
<path d="M11.0712 15.1336C10.7748 14.1921 10.7807 12.3738 10.9526 12.3738C11.4505 12.3738 11.4031 14.5451 11.0712 15.1336ZM10.9704 17.9109C10.514 19.0996 9.94499 20.4589 9.28706 21.6004C10.3717 21.1885 11.5987 20.5883 13.0153 20.3117C12.2625 19.7469 11.5394 18.9348 10.9704 17.9109ZM5.39288 25.2546C5.39288 25.3016 6.17528 24.9368 7.46148 22.8891C7.06436 23.2598 5.73666 24.3307 5.39288 25.2546ZM14.989 9.47874H23.0501V28.7793C23.0501 29.5619 22.4158 30.1915 21.6275 30.1915H1.71208C0.923763 30.1915 0.289551 29.5619 0.289551 28.7793V1.47608C0.289551 0.693464 0.923763 0.0638428 1.71208 0.0638428H13.5665V8.0665C13.5665 8.84323 14.2067 9.47874 14.989 9.47874ZM14.5149 19.588C13.3294 18.8701 12.5411 17.8815 11.9839 16.4222C12.2507 15.3336 12.6715 13.6801 12.3514 12.6445C12.0729 10.9145 9.83829 11.0852 9.51822 12.2444C9.22186 13.3212 9.49452 14.8393 9.99833 16.7753C9.31077 18.3993 8.29722 20.5765 7.58003 21.824C7.5741 21.824 7.5741 21.8299 7.56817 21.8299C5.9619 22.6478 3.20574 24.4484 4.33784 25.8312C4.66976 26.2372 5.28619 26.4197 5.61219 26.4197C6.67316 26.4197 7.72821 25.3605 9.23372 22.7832C10.7629 22.283 12.4403 21.6593 13.9162 21.418C15.2024 22.1123 16.7079 22.5654 17.7096 22.5654C19.4404 22.5654 19.5589 20.6825 18.8773 20.0116C18.0534 19.2114 15.6588 19.4409 14.5149 19.588ZM22.6352 6.24237L16.8265 0.475744C16.5598 0.21095 16.1982 0.0638428 15.8189 0.0638428H15.4632V7.59576H23.0501V7.23681C23.0501 6.8661 22.9019 6.50716 22.6352 6.24237ZM18.2431 21.265C18.4861 21.1061 18.0949 20.5648 15.7062 20.7354C17.9052 21.6651 18.2431 21.265 18.2431 21.265Z" fill="#EB5757"/>
</svg>
