<svg width="14" height="18" viewBox="0 0 14 18" fill="none" xmlns="http://www.w3.org/2000/svg">
<path d="M6.96437 8.8647C6.79377 8.32275 6.79718 7.27609 6.89613 7.27609C7.18273 7.27609 7.15544 8.52598 6.96437 8.8647ZM6.90637 10.4635C6.64365 11.1477 6.3161 11.9302 5.93738 12.5873C6.56176 12.3502 7.26803 12.0047 8.08349 11.8455C7.65017 11.5203 7.23391 11.0529 6.90637 10.4635ZM3.69573 14.6908C3.69573 14.7179 4.14611 14.5078 4.8865 13.3291C4.6579 13.5425 3.89363 14.159 3.69573 14.6908ZM9.21966 5.60957H13.8599V16.7197C13.8599 17.1702 13.4948 17.5326 13.041 17.5326H1.57692C1.12313 17.5326 0.758057 17.1702 0.758057 16.7197V1.00292C0.758057 0.552422 1.12313 0.189987 1.57692 0.189987H8.4008V4.79663C8.4008 5.24375 8.76929 5.60957 9.21966 5.60957ZM8.94671 11.4288C8.26432 11.0156 7.81053 10.4465 7.48981 9.60651C7.64335 8.97987 7.88559 8.02806 7.70135 7.4319C7.54099 6.43605 6.25469 6.53428 6.07044 7.20157C5.89985 7.82143 6.0568 8.69534 6.34681 9.80974C5.95103 10.7446 5.36758 11.9979 4.95474 12.716C4.95133 12.716 4.95133 12.7194 4.94792 12.7194C4.02328 13.1902 2.43673 14.2267 3.08841 15.0227C3.27948 15.2564 3.63432 15.3614 3.82198 15.3614C4.43271 15.3614 5.04004 14.7517 5.90667 13.2681C6.78695 12.9802 7.75253 12.6212 8.6021 12.4823C9.34249 12.882 10.2091 13.1428 10.7857 13.1428C11.782 13.1428 11.8503 12.0589 11.4579 11.6727C10.9836 11.2121 9.60521 11.3442 8.94671 11.4288ZM13.6211 3.74659L10.2774 0.427094C10.1238 0.274668 9.9157 0.189987 9.69733 0.189987H9.49262V4.52565H13.8599V4.31903C13.8599 4.10563 13.7746 3.89901 13.6211 3.74659ZM11.0928 12.3942C11.2327 12.3028 11.0075 11.9911 9.63251 12.0894C10.8983 12.6245 11.0928 12.3942 11.0928 12.3942Z" fill="#EB5757"/>
</svg>
